<?xml version="1.0" standalone="no"?>
<!DOCTYPE svg PUBLIC "-//W3C//DTD SVG 20010904//EN"
 "http://www.w3.org/TR/2001/REC-SVG-20010904/DTD/svg10.dtd">
<svg version="1.0" xmlns="http://www.w3.org/2000/svg"
 width="366.000000pt" height="90.000000pt" viewBox="0 0 366.000000 90.000000"
 preserveAspectRatio="xMidYMid meet">

<g transform="translate(0.000000,90.000000) scale(0.100000,-0.100000)"
fill="#000000" stroke="none">
<path d="M385 601 c-64 -30 -90 -64 -90 -121 0 -43 5 -54 36 -87 33 -35 36
-41 27 -72 -5 -18 -7 -35 -4 -38 2 -3 25 9 50 26 27 19 57 31 78 31 43 1 106
30 138 64 19 22 25 38 25 76 0 38 -6 54 -25 76 -57 61 -158 81 -235 45z"/>
<path d="M2120 460 c0 -117 17 -154 22 -47 3 62 3 62 36 65 l32 3 0 -65 c0
-39 4 -66 10 -66 7 0 10 27 8 73 l-3 72 -43 0 c-42 0 -42 0 -42 38 0 20 -4 37
-10 37 -6 0 -10 -43 -10 -110z"/>
<path d="M2660 460 c0 -85 3 -111 13 -108 6 3 13 20 15 38 l4 34 33 -39 c18
-22 36 -37 40 -33 4 4 -4 21 -19 38 -32 39 -32 41 0 79 19 23 22 31 11 31 -9
0 -26 -15 -39 -32 l-23 -33 -5 64 c-3 39 -10 66 -17 69 -10 3 -13 -23 -13
-108z"/>
<path d="M1440 545 c0 -8 5 -15 10 -15 6 0 10 7 10 15 0 8 -4 15 -10 15 -5 0
-10 -7 -10 -15z"/>
<path d="M1956 553 c-11 -11 -6 -23 9 -23 8 0 15 4 15 9 0 13 -16 22 -24 14z"/>
<path d="M990 450 l0 -100 55 0 c30 0 55 5 55 10 0 6 -20 10 -45 10 l-45 0 0
90 c0 53 -4 90 -10 90 -6 0 -10 -40 -10 -100z"/>
<path d="M2360 450 c0 -60 4 -100 10 -100 6 0 10 40 10 100 0 60 -4 100 -10
100 -6 0 -10 -40 -10 -100z"/>
<path d="M2426 506 c-20 -24 -36 -48 -36 -53 1 -15 88 -108 95 -101 4 4 -11
29 -33 56 l-41 48 40 47 c26 29 35 47 26 47 -8 0 -31 -20 -51 -44z"/>
<path d="M2023 520 c-3 -11 -10 -20 -16 -20 -7 0 -7 -4 1 -12 7 -7 12 -29 12
-49 0 -53 16 -89 39 -89 11 0 23 5 26 10 3 6 -3 10 -14 10 -19 0 -21 6 -21 55
0 48 2 55 20 55 11 0 20 5 20 10 0 6 -9 10 -20 10 -13 0 -20 7 -20 20 0 11 -5
20 -11 20 -6 0 -13 -9 -16 -20z"/>
<path d="M1154 492 c-21 -14 -36 -54 -29 -80 15 -61 74 -82 111 -41 25 28 25
96 -1 115 -20 15 -63 18 -81 6z m71 -61 c0 -75 -66 -86 -73 -12 -5 50 3 63 40
59 32 -3 33 -5 33 -47z"/>
<path d="M1302 491 c-13 -8 -15 -19 -9 -83 1 -21 0 -38 -4 -38 -17 0 -19 -35
-3 -47 25 -18 89 -16 108 3 33 33 11 64 -46 64 -21 0 -38 5 -38 10 0 6 13 10
28 10 34 0 52 16 52 47 0 13 5 23 10 23 6 0 10 5 10 10 0 12 -89 13 -108 1z
m66 -35 c-4 -28 -51 -30 -56 -2 -5 23 13 35 40 28 13 -3 18 -12 16 -26z m12
-106 c0 -17 -7 -20 -40 -20 -27 0 -40 4 -40 13 0 21 11 27 47 27 26 0 33 -4
33 -20z"/>
<path d="M1440 425 c0 -43 4 -75 10 -75 6 0 10 32 10 75 0 43 -4 75 -10 75 -6
0 -10 -32 -10 -75z"/>
<path d="M1500 423 c0 -55 3 -74 13 -71 7 3 13 28 15 67 l3 62 32 -3 c32 -3
32 -3 35 -65 2 -35 7 -63 13 -63 6 0 9 29 7 73 l-3 72 -57 1 -58 1 0 -74z"/>
<path d="M1723 484 c3 -11 13 -45 22 -77 10 -33 22 -56 28 -54 6 2 18 25 26
50 8 26 18 47 22 47 4 0 12 -22 19 -50 7 -27 18 -50 25 -50 7 0 20 28 30 62 9
34 19 68 22 75 3 7 0 13 -6 13 -13 0 -14 -3 -32 -70 l-12 -45 -17 55 c-10 30
-22 56 -28 58 -6 2 -19 -23 -29 -54 l-18 -57 -15 53 c-9 30 -21 55 -29 58 -9
3 -11 -2 -8 -14z"/>
<path d="M1950 424 c0 -56 3 -75 13 -72 8 3 13 30 15 76 2 60 0 72 -13 72 -12
0 -15 -14 -15 -76z"/>
<path d="M2525 491 c-3 -6 12 -11 32 -13 52 -4 56 -31 7 -44 -78 -19 -71 -78
10 -80 l46 -1 0 62 c0 34 -5 66 -12 73 -14 14 -74 16 -83 3z m73 -93 c-4 -31
-58 -40 -58 -10 0 25 8 32 37 32 20 0 24 -5 21 -22z"/>
<path d="M2805 491 c-3 -6 12 -11 32 -13 52 -4 56 -31 7 -44 -78 -19 -71 -78
10 -80 l46 -1 0 62 c0 34 -5 66 -12 73 -14 14 -74 16 -83 3z m73 -93 c-4 -31
-58 -40 -58 -10 0 25 8 32 37 32 20 0 24 -5 21 -22z"/>
<path d="M2964 492 c-21 -14 -36 -54 -29 -80 15 -61 74 -82 111 -41 25 28 25
96 -1 115 -20 15 -63 18 -81 6z m71 -61 c0 -75 -66 -86 -73 -12 -5 50 3 63 40
59 32 -3 33 -5 33 -47z"/>
</g>
</svg>
